<?xml version="1.0" encoding="UTF-8" standalone="no"?>
<svg
   xmlns:dc="http://purl.org/dc/elements/1.1/"
   xmlns:cc="http://creativecommons.org/ns#"
   xmlns:rdf="http://www.w3.org/1999/02/22-rdf-syntax-ns#"
   xmlns:svg="http://www.w3.org/2000/svg"
   xmlns="http://www.w3.org/2000/svg"
   version="1.1"
   id="svg2"
   viewBox="0 0 534.00001 242"
   height="242"
   width="534">
  <defs
     id="defs4">
    <radialGradient
       id="radialGradient114"
       spreadMethod="pad"
       gradientTransform="matrix(135.27,0,0,135.27,337.87,976.06965)"
       gradientUnits="userSpaceOnUse"
       r="1"
       cy="0"
       cx="0"
       fy="-0.181299"
       fx="0.62031102">
      <stop
         id="stop116"
         offset="0"
         style="stop-opacity:1;stop-color:#ffffff" />
      <stop
         id="stop118"
         offset="0.00115317"
         style="stop-opacity:1;stop-color:#ffffff" />
      <stop
         id="stop120"
         offset="0.133397"
         style="stop-opacity:1;stop-color:#f6eb08" />
      <stop
         id="stop122"
         offset="0.859272"
         style="stop-opacity:1;stop-color:#eb821a" />
      <stop
         id="stop124"
         offset="1"
         style="stop-opacity:1;stop-color:#eb821a" />
    </radialGradient>
    <clipPath
       id="clipPath100"
       clipPathUnits="userSpaceOnUse">
      <path
         id="path102"
         d="m 5212.8,939.52 -18,36.011 -20,33.999 -28,44 -28,36 -34,42 -34,35.99 -40,38.01 -38,31.99 -42,30 -42,26.01 -46.5,26 -39.5,20 -40,16 -36,10 -36,8 -36,6 -42,4 -2748,-6 -44,-2 -44,-2 -48,-6.01 -40,-7.99 -52,-12.01 -36,-11.99 -38,-14 -38,-13.5 -48,-24.5 -36,-18 -46,-30 -42,-32 -44,-36.01 -38,-37.99 -30,-36 -32,-42 -24,-42 -18,-35.999 -10,-34.011 -6.64,-28.211 4074.25,0 -11.61,28.211 z" />
    </clipPath>
    <linearGradient
       id="linearGradient104"
       spreadMethod="pad"
       gradientTransform="matrix(0,-468.741,-468.741,0,3187.29,1381.09)"
       gradientUnits="userSpaceOnUse"
       y2="0"
       x2="1"
       y1="0"
       x1="0">
      <stop
         id="stop106"
         offset="0"
         style="stop-opacity:1;stop-color:#f57c14" />
      <stop
         id="stop108"
         offset="0.06066242"
         style="stop-opacity:1;stop-color:#f57c14" />
      <stop
         id="stop110"
         offset="1"
         style="stop-opacity:1;stop-color:#9e3539" />
    </linearGradient>
    <clipPath
       id="clipPath82"
       clipPathUnits="userSpaceOnUse">
      <path
         id="path84"
         d="m 5192.46,1066.59 c 0,268.02 -217.19,485.3 -485.11,485.3 -267.91,0 -485.1,-217.28 -485.1,-485.3 0,-37.78 4.45,-74.5 12.61,-109.789 l 944.98,0 c 8.17,35.289 12.62,72.009 12.62,109.789 z" />
    </clipPath>
    <linearGradient
       id="linearGradient86"
       spreadMethod="pad"
       gradientTransform="matrix(-146.347,-428.944,-428.944,146.347,4880.13,1577.06)"
       gradientUnits="userSpaceOnUse"
       y2="0"
       x2="1"
       y1="0"
       x1="0">
      <stop
         id="stop88"
         offset="0"
         style="stop-opacity:1;stop-color:#ffffff" />
      <stop
         id="stop90"
         offset="0.803291"
         style="stop-opacity:1;stop-color:#f57d14" />
      <stop
         id="stop92"
         offset="1"
         style="stop-opacity:1;stop-color:#f57d14" />
    </linearGradient>
    <clipPath
       id="clipPath64"
       clipPathUnits="userSpaceOnUse">
      <path
         id="path66"
         d="m 2223.9,947.762 c 0,293.878 -238.14,532.128 -531.91,532.128 -293.77,0 -531.92,-238.25 -531.92,-532.128 0,-1.043 0.08,-2.051 0.08,-3.082 l 1063.67,0 c 0.01,1.031 0.08,2.039 0.08,3.082 z" />
    </clipPath>
    <linearGradient
       id="linearGradient68"
       spreadMethod="pad"
       gradientTransform="matrix(953.781,-1468.52,-1468.52,-953.781,1093.23,1947.08)"
       gradientUnits="userSpaceOnUse"
       y2="0"
       x2="1"
       y1="0"
       x1="0">
      <stop
         id="stop70"
         offset="0"
         style="stop-opacity:1;stop-color:#ffffff" />
      <stop
         id="stop72"
         offset="0.803291"
         style="stop-opacity:1;stop-color:#f57d14" />
      <stop
         id="stop74"
         offset="1"
         style="stop-opacity:1;stop-color:#f57d14" />
    </linearGradient>
    <clipPath
       id="clipPath44"
       clipPathUnits="userSpaceOnUse">
      <path
         id="path46"
         d="m 2443.21,1615.69 c -49.44,-179.67 -235.17,-285.23 -414.85,-235.79 -179.67,49.44 -285.23,235.18 -235.79,414.83 49.44,179.68 235.16,285.26 414.83,235.82 179.68,-49.45 285.26,-235.19 235.81,-414.86 z" />
    </clipPath>
    <linearGradient
       id="linearGradient48"
       spreadMethod="pad"
       gradientTransform="matrix(176.245,-310.049,-310.049,-176.245,1936.12,2024.98)"
       gradientUnits="userSpaceOnUse"
       y2="0"
       x2="1"
       y1="0"
       x1="0">
      <stop
         id="stop50"
         offset="0"
         style="stop-opacity:1;stop-color:#ffffff" />
      <stop
         id="stop52"
         offset="0.803291"
         style="stop-opacity:1;stop-color:#f57d14" />
      <stop
         id="stop54"
         offset="1"
         style="stop-opacity:1;stop-color:#f57d14" />
    </linearGradient>
    <linearGradient
       id="linearGradient30"
       spreadMethod="pad"
       gradientTransform="matrix(0,-99.126375,99.126375,0,287.81625,910.90087)"
       gradientUnits="userSpaceOnUse"
       y2="0"
       x2="1"
       y1="0"
       x1="0">
      <stop
         id="stop32"
         offset="0"
         style="stop-opacity:1;stop-color:#f57d14" />
      <stop
         id="stop34"
         offset="1"
         style="stop-opacity:1;stop-color:#ffffff" />
    </linearGradient>
    <radialGradient
       id="radialGradient14"
       spreadMethod="pad"
       gradientTransform="matrix(101.06288,0,0,101.06288,422.72,945.97585)"
       gradientUnits="userSpaceOnUse"
       r="1"
       cy="0"
       cx="0"
       fy="0.051440898"
       fx="-0.0244783">
      <stop
         id="stop16"
         offset="0"
         style="stop-opacity:1;stop-color:#ffffff" />
      <stop
         id="stop18"
         offset="0.00164407"
         style="stop-opacity:1;stop-color:#ffffff" />
      <stop
         id="stop20"
         offset="0.190184"
         style="stop-opacity:1;stop-color:#f6eb08" />
      <stop
         id="stop22"
         offset="0.859272"
         style="stop-opacity:1;stop-color:#eb821a" />
      <stop
         id="stop24"
         offset="1"
         style="stop-opacity:1;stop-color:#eb821a" />
    </radialGradient>
  </defs>
  <metadata
     id="metadata7">
    <rdf:RDF>
      <cc:Work
         rdf:about="">
        <dc:format>image/svg+xml</dc:format>
        <dc:type
           rdf:resource="http://purl.org/dc/dcmitype/StillImage" />
        <dc:title></dc:title>
      </cc:Work>
    </rdf:RDF>
  </metadata>
  <g
     transform="translate(0,-810.36218)"
     id="layer1">
    <g
       transform="translate(0.500001,2e-5)"
       id="g5030">
      <path
         id="path26"
         style="fill:url(#radialGradient14);fill-opacity:1;fill-rule:evenodd;stroke:none"
         d="m 414.3825,881.29837 12.00125,-42 1.74875,0.25 1.25,44 22.5,-37.25 2.00125,1 -10.5,42.25 31.875,-30.25 1.62375,1.5 -21.49875,38.25 38.75,-20.5 1.25,1.5 -30.75,31.5 42.75,-9.75 1,1.75 -38,22.25 43.99875,1.625 0,1.875 -42.5,11.74998 42.25125,12.5 0,1.75 -44,0.75 37.25,23.25 -1,2 -42.375,-10.75 29.875,31.74875 -1,1.7512 -38,-21.74995 20.375,38.49995 -1.875,1.4988 -31.25,-30.74875 10.25,42.24975 -2,1.25 -22.25125,-37.75095 -0.68625,43.50095 -2.3125,0.5 -12.00125,-41.99975 -12.5,41.99975 -2.24875,-0.5 0,-43.50095 -1.25,-0.4988 -24.25,36.49975 10.5,-42.25095 -32,29.99995 -1.75,-1.4988 21.75,-37.99995 -39,20.24995 -1.25,-1.5 30.74875,-30.99995 -42.99875,9.5 -0.5,-1.75 38,-22.25 -43.5,-1.75 -0.75,-1.75 42.1875,-12 -41.6875,-12.24998 0.25,-2 43.75,-0.75 -37,-22.5 0.25,-2 42.875,10.75 -30.375,-32 1.5,-1.75 38.5,21 -21,-38 1.25,-1.5 32.25,30.75 -10.50125,-42.75 -0.35875,-0.75 25.2975,38 0.5625,-44.25 2.5,0 11.99875,42" />
      <path
         id="path28"
         style="fill:#f57c14;fill-opacity:1;fill-rule:nonzero;stroke:none"
         d="m 533.0625,1022.8246 c 0,-41.93875 -33.9975,-75.93745 -75.9375,-75.93745 -16.94,0 -32.5825,5.5512 -45.21375,14.9287 1.57,-7.9637 2.40125,-16.1925 2.40125,-24.61623 0,-69.8975 -56.66375,-126.5625 -126.5625,-126.5625 -55.66125,0 -102.92875,35.9325 -119.875,85.86625 -9.51375,-7.13625 -21.33375,-11.36625 -34.14125,-11.36625 -31.45375,0 -56.952502,25.49875 -56.952502,56.95373 0,4.87 0.61375,9.595 1.76375,14.1075 -43.625,1.2688 -78.6075,37.00749 -78.6075,80.93865 0,5.1098 0.495,10.1026 1.4,14.9502 l 525.873752,0 c 3.765,-9.0064 5.85125,-18.8901 5.85125,-29.2626" />
      <path
         id="path36"
         style="fill:url(#linearGradient30);fill-opacity:1;fill-rule:evenodd;stroke:none"
         d="m 399.445,937.26587 c 0,61.65128 -50.14375,100.65233 -111.795,100.65233 -61.65125,0 -111.4625,-39.00105 -111.4625,-100.65233 0,-61.65125 49.9775,-111.62875 111.62875,-111.62875 61.65125,0 111.62875,49.9775 111.62875,111.62875" />
      <path
         id="path38"
         style="fill:#f57c14;fill-opacity:1;fill-rule:evenodd;stroke:none"
         d="m 382.3475,937.96965 c 0,37.7025 -42.64125,68.26615 -95.23875,68.26615 -52.59875,0 -95.2375,-30.56365 -95.2375,-68.26615 0,-37.70253 42.63875,-68.26628 95.2375,-68.26628 52.5975,0 95.23875,30.56375 95.23875,68.26628" />
      <g
         id="g40"
         transform="matrix(0.125,0,0,-0.125,-130.69625,1155.4983)">
        <g
           clip-path="url(#clipPath44)"
           id="g42">
          <path
             id="path56"
             style="fill:url(#linearGradient48);fill-opacity:1;fill-rule:nonzero;stroke:none"
             d="m 2443.21,1615.69 c -49.44,-179.67 -235.17,-285.23 -414.85,-235.79 -179.67,49.44 -285.23,235.18 -235.79,414.83 49.44,179.68 235.16,285.26 414.83,235.82 179.68,-49.45 285.26,-235.19 235.81,-414.86" />
        </g>
      </g>
      <path
         id="path58"
         style="fill:#f57c14;fill-opacity:1;fill-rule:evenodd;stroke:none"
         d="m 168.3,926.26587 c 7.15125,12.38498 -1.79,30.93498 -19.97,41.43128 -18.18,10.4975 -38.71625,8.96499 -45.86625,-3.42 -7.151252,-12.3863 1.78875,-30.93503 19.97,-41.43129 18.18,-10.49749 38.715,-8.96624 45.86625,3.42" />
      <g
         id="g60"
         transform="matrix(0.125,0,0,-0.125,-130.69625,1155.4983)">
        <g
           clip-path="url(#clipPath64)"
           id="g62">
          <path
             id="path76"
             style="fill:url(#linearGradient68);fill-opacity:1;fill-rule:nonzero;stroke:none"
             d="m 2223.9,947.762 c 0,293.878 -238.14,532.128 -531.91,532.128 -293.77,0 -531.92,-238.25 -531.92,-532.128 0,-1.043 0.08,-2.051 0.08,-3.082 l 1063.67,0 c 0.01,1.031 0.08,2.039 0.08,3.082" />
        </g>
      </g>
      <g
         id="g78"
         transform="matrix(0.125,0,0,-0.125,-130.69625,1155.4983)">
        <g
           clip-path="url(#clipPath82)"
           id="g80">
          <path
             id="path94"
             style="fill:url(#linearGradient86);fill-opacity:1;fill-rule:nonzero;stroke:none"
             d="m 5192.46,1066.59 c 0,268.02 -217.19,485.3 -485.11,485.3 -267.91,0 -485.1,-217.28 -485.1,-485.3 0,-37.78 4.45,-74.5 12.61,-109.789 l 944.98,0 c 8.17,35.289 12.62,72.009 12.62,109.789" />
        </g>
      </g>
      <g
         id="g96"
         transform="matrix(0.125,0,0,-0.125,-130.69625,1155.4983)">
        <g
           clip-path="url(#clipPath100)"
           id="g98">
          <path
             id="path112"
             style="fill:url(#linearGradient104);fill-opacity:1;fill-rule:nonzero;stroke:none"
             d="m 5212.8,939.52 -18,36.011 -20,33.999 -28,44 -28,36 -34,42 -34,35.99 -40,38.01 -38,31.99 -42,30 -42,26.01 -46.5,26 -39.5,20 -40,16 -36,10 -36,8 -36,6 -42,4 -2748,-6 -44,-2 -44,-2 -48,-6.01 -40,-7.99 -52,-12.01 -36,-11.99 -38,-14 -38,-13.5 -48,-24.5 -36,-18 -46,-30 -42,-32 -44,-36.01 -38,-37.99 -30,-36 -32,-42 -24,-42 -18,-35.999 -10,-34.011 -6.64,-28.211 4074.25,0 -11.61,28.211" />
        </g>
      </g>
      <path
         id="path126"
         style="fill:url(#radialGradient114);fill-opacity:1;fill-rule:evenodd;stroke:none"
         d="m 421.92375,951.74835 45.99875,60.24995 -1.74875,1.25 -53.75,-48.24995 -206.25,37.49875 -0.25,-1.9988 191.75,-43.99995 -105.5,-35.99998 1.25,-1.5 128.5,32.74998" />
    </g>
  </g>
</svg>
