<?xml version="1.0" encoding="UTF-8" standalone="no"?>
<svg
   xmlns:dc="http://purl.org/dc/elements/1.1/"
   xmlns:cc="http://creativecommons.org/ns#"
   xmlns:rdf="http://www.w3.org/1999/02/22-rdf-syntax-ns#"
   xmlns:svg="http://www.w3.org/2000/svg"
   xmlns="http://www.w3.org/2000/svg"
   width="64.325996"
   height="61.964001"
   viewBox="0 0 64.325997 61.964002"
   id="svg2"
   version="1.1">
  <defs
     id="defs4" />
  <metadata
     id="metadata7">
    <rdf:RDF>
      <cc:Work
         rdf:about="">
        <dc:format>image/svg+xml</dc:format>
        <dc:type
           rdf:resource="http://purl.org/dc/dcmitype/StillImage" />
        <dc:title></dc:title>
      </cc:Work>
    </rdf:RDF>
  </metadata>
  <g
     id="layer1"
     transform="translate(0,-990.39819)">
    <g
       id="g4796">
      <path
         d="m 4.0875842,1004.9527 c -5.696288,8.1836 -4.99218502,18.8306 -0.633788,27.5269 0.09718,0.2124 0.209475,0.4131 0.316413,0.6181 0.06102,0.1329 0.13085,0.2661 0.205562,0.3965 0.03271,0.072 0.08399,0.1514 0.125975,0.2218 0.07031,0.142 0.144538,0.2728 0.219238,0.4081 0.140137,0.2359 0.279787,0.4756 0.419925,0.7095 0.0791,0.1304 0.1543,0.2612 0.242675,0.3916 0.1489248,0.2524 0.3217748,0.5015 0.4760748,0.7534 0.069825,0.1075 0.13525,0.2124 0.2099625,0.3174 0.223625,0.3408 0.4482375,0.6767 0.6953125,1.0078 0,0.01 0.00927,0.018 0.01855,0.023 0.037113,0.056 0.0791,0.1099 0.1162125,0.1611 0.2099625,0.2872 0.419925,0.567 0.63965,0.8448 0.0747,0.1026 0.1582,0.2051 0.2334,0.3052 0.2001875,0.2432 0.396475,0.4853 0.5917875,0.7255 0.0752,0.087 0.149425,0.1778 0.2290125,0.2662 0.261225,0.315 0.5366125,0.6275 0.8168875,0.9361 0,0 0.00879,0.011 0.013675,0.018 0.00927,0.012 0.01855,0.024 0.037112,0.035 0.2705,0.2969 0.5459,0.588 0.826175,0.8775 0.088375,0.089 0.176749,0.1748 0.274899,0.2685 0.21435,0.2174 0.4292,0.4361 0.6582,0.6505 0.09326,0.089 0.186038,0.1753 0.275388,0.2611 0.298337,0.2804 0.596687,0.5607 0.909187,0.8282 0.0049,0 0.0098,0.01 0.01415,0.012 0.05128,0.045 0.107425,0.089 0.1543,0.1334 0.2749,0.2352 0.550788,0.4687 0.830038,0.6996 0.112375,0.094 0.224125,0.1821 0.3365,0.273 0.233376,0.1845 0.466251,0.3613 0.69925,0.539 0.1215,0.091 0.243125,0.1841 0.369125,0.2803 0.251875,0.1885 0.513125,0.3726 0.7695,0.5547 0.09325,0.068 0.186501,0.1358 0.284626,0.1983 0.0235,0.021 0.05125,0.04 0.07475,0.059 0.256376,0.1679 0.499,0.331 0.7515,0.497 0.11125,0.072 0.21925,0.1421 0.326625,0.2139 0.391625,0.25 0.78325,0.4902 1.170875,0.7236 0.111875,0.059 0.223625,0.1216 0.331125,0.1841 0.289,0.168 0.583375,0.334 0.88175,0.4926 0.163125,0.091 0.326625,0.1705 0.494125,0.254 0.20125,0.1098 0.411125,0.2217 0.626,0.3315 0.05125,0.021 0.1025,0.04 0.149,0.065 0.08837,0.04 0.17225,0.084 0.256251,0.126 0.32725,0.1611 0.662624,0.313 1.008375,0.4669 0.06488,0.031 0.13475,0.058 0.205,0.093 0.386749,0.1679 0.7745,0.329 1.170999,0.4853 0.09375,0.035 0.1865,0.077 0.284625,0.1094 0.359375,0.1402 0.732375,0.2778 1.101,0.4107 0.04687,0.019 0.0885,0.033 0.135375,0.049 0.410625,0.1406 0.816375,0.273 1.231875,0.4018 0.09763,0.028 0.19575,0.062 0.298375,0.088 0.42475,0.128 0.834875,0.2779 1.269,0.3594 27.541,5.02 35.5425,-16.5513 35.5425,-16.5513 -6.722625,8.75 -18.652875,11.062 -29.952625,8.4913 -0.420375,-0.095 -0.8355,-0.2285 -1.25975,-0.355 -0.09863,-0.028 -0.2105,-0.06 -0.308625,-0.095 -0.410125,-0.1235 -0.815875,-0.2568 -1.212375,-0.3921 -0.05625,-0.019 -0.11675,-0.039 -0.172875,-0.063 -0.358875,-0.1235 -0.713375,-0.2587 -1.068375,-0.3959 -0.09812,-0.043 -0.200625,-0.078 -0.298875,-0.1147 -0.392,-0.1539 -0.77875,-0.3194 -1.15675,-0.4854 -0.08388,-0.03 -0.15425,-0.066 -0.233875,-0.098 -0.3305,-0.1518 -0.647875,-0.3008 -0.970125,-0.455 -0.09775,-0.042 -0.186625,-0.089 -0.28475,-0.1378 -0.251875,-0.1191 -0.503375,-0.2519 -0.7505,-0.3827 -0.17275,-0.088 -0.34125,-0.17 -0.504375,-0.2608 -0.30325,-0.1631 -0.606375,-0.336 -0.909625,-0.5039 -0.09375,-0.063 -0.19625,-0.1172 -0.30375,-0.1753 -0.391625,-0.2329 -0.7885,-0.4737 -1.17525,-0.7207 -0.111875,-0.07 -0.214875,-0.1401 -0.317375,-0.2125 -0.28475,-0.1791 -0.565,-0.3686 -0.839875,-0.5551 -0.08888,-0.063 -0.17725,-0.1284 -0.2705,-0.1939 -0.266125,-0.1865 -0.527375,-0.375 -0.793,-0.5692 -0.11225,-0.088 -0.229,-0.1769 -0.350125,-0.2656 -0.23825,-0.1842 -0.476,-0.3663 -0.71375,-0.5577 -0.103125,-0.086 -0.2095,-0.1705 -0.313,-0.254 -0.307625,-0.247 -0.59675,-0.4951 -0.891125,-0.7513 -0.02787,-0.03 -0.06937,-0.056 -0.102625,-0.082 -0.3125,-0.2797 -0.625,-0.5663 -0.933,-0.8515 -0.09337,-0.088 -0.171875,-0.1703 -0.265625,-0.2543 -0.223624,-0.2193 -0.447749,-0.4337 -0.666999,-0.6558 -0.09325,-0.093 -0.17775,-0.1792 -0.266125,-0.2676 -0.280251,-0.2828 -0.55575,-0.5743 -0.82575,-0.8726 -0.01412,-0.012 -0.02825,-0.025 -0.0425,-0.042 -0.284125,-0.3125 -0.5595,-0.63 -0.834375,-0.9523 -0.07525,-0.086 -0.145125,-0.1747 -0.21925,-0.2587 -0.20125,-0.2471 -0.401876,-0.4971 -0.607,-0.7442 -0.06487,-0.096 -0.140125,-0.1865 -0.21475,-0.2802 -0.237875,-0.3057 -0.466375,-0.6109 -0.694888,-0.9259 -6.2709995,-8.5546 -8.5336868,-20.3607 -3.5175745,-30.0487"
         style="fill:#2e64b3;fill-opacity:1;fill-rule:nonzero;stroke:none"
         id="path48" />
      <path
         d="m 21.770684,998.0544 c -4.129375,5.9252 -3.900375,13.8593 -0.686,20.1293 0.53175,1.0498 1.138125,2.0698 1.81925,3.0376 0.61625,0.8862 1.297375,1.936 2.123125,2.6479 0.289,0.3268 0.6015,0.6441 0.92375,0.9629 0.07963,0.08 0.15925,0.1572 0.24275,0.2407 0.308125,0.2959 0.620625,0.5879 0.942375,0.8722 0.0098,0.012 0.02787,0.024 0.03762,0.036 0.0044,0 0.0093,0.01 0.0093,0.01 0.358875,0.3174 0.723125,0.6186 1.101125,0.9125 0.08837,0.063 0.167875,0.1334 0.25625,0.1959 0.373625,0.292 0.756375,0.5712 1.143125,0.8466 0.01412,0 0.02338,0.014 0.0425,0.022 0.1675,0.1211 0.34475,0.2329 0.526875,0.3496 0.079,0.051 0.163,0.1119 0.242625,0.1611 0.284125,0.1847 0.5645,0.3565 0.8535,0.5274 0.0425,0.021 0.084,0.044 0.126,0.065 0.242625,0.147 0.499,0.2915 0.756375,0.4224 0.08838,0.054 0.17675,0.096 0.265625,0.1446 0.17725,0.088 0.3545,0.1816 0.526875,0.2729 0.02338,0.012 0.05662,0.025 0.08438,0.038 0.36375,0.1796 0.7325,0.3448 1.09625,0.5108 0.08837,0.035 0.1635,0.065 0.247,0.1001 0.299375,0.1284 0.602125,0.2549 0.900875,0.3686 0.134875,0.045 0.26125,0.098 0.38725,0.1425 0.274875,0.098 0.555125,0.1934 0.830625,0.2843 0.13475,0.044 0.25625,0.082 0.377875,0.1216 0.391625,0.124 0.788625,0.2826 1.203625,0.3471 21.256875,3.5254 26.17425,-12.8491 26.17425,-12.8491 -4.427625,6.3784 -12.999,9.4155 -22.143,7.041 -0.410625,-0.105 -0.8115,-0.2221 -1.204125,-0.3501 -0.126,-0.033 -0.23725,-0.072 -0.358875,-0.1143 -0.284625,-0.091 -0.569875,-0.187 -0.84475,-0.2895 -0.126,-0.046 -0.256375,-0.093 -0.38225,-0.1421 -0.30325,-0.1186 -0.6065,-0.2354 -0.900875,-0.3663 -0.08837,-0.035 -0.172375,-0.065 -0.24225,-0.1025 -0.377875,-0.1636 -0.7515,-0.3388 -1.11525,-0.5131 -0.1865,-0.096 -0.368625,-0.189 -0.555125,-0.2871 -0.111875,-0.056 -0.21925,-0.1099 -0.317375,-0.1611 -0.247625,-0.128 -0.476125,-0.2638 -0.7095,-0.4009 -0.05513,-0.03 -0.111875,-0.059 -0.168,-0.091 -0.284125,-0.1724 -0.578625,-0.3452 -0.848625,-0.5249 -0.09375,-0.053 -0.172875,-0.1142 -0.26125,-0.1698 -0.187,-0.1193 -0.368625,-0.2379 -0.5605,-0.3663 -0.38675,-0.2686 -0.764625,-0.5527 -1.142625,-0.8379 -0.08888,-0.072 -0.17275,-0.1372 -0.25675,-0.2075 -4.01275,-3.1587 -7.185125,-7.4786 -8.687,-12.3706 -1.5865,-5.0811 -1.236875,-10.7851 1.4975,-15.4106"
         style="fill:#2e64b3;fill-opacity:1;fill-rule:nonzero;stroke:none"
         id="path50" />
      <path
         d="m 36.635434,992.901 c -2.4355,3.5738 -2.669,8.0137 -0.98975,11.9556 1.78275,4.1904 5.42625,7.477 9.672375,9.0326 0.172375,0.068 0.34525,0.1241 0.5225,0.1846 0.0795,0.023 0.15375,0.049 0.23825,0.074 0.247,0.077 0.494125,0.1704 0.7505,0.2197 11.743125,2.2675 14.92575,-6.026 15.77925,-7.2461 -2.794375,4.0175 -7.483375,4.9805 -13.23625,3.5835 -0.45275,-0.1099 -0.947375,-0.273 -1.38575,-0.4316 -0.559625,-0.1983 -1.11475,-0.4288 -1.65625,-0.6836 -1.01225,-0.4918 -1.99225,-1.0845 -2.8975,-1.7705 -5.150875,-3.9053 -8.34175,-11.354 -4.982875,-17.4214"
         style="fill:#2e64b3;fill-opacity:1;fill-rule:nonzero;stroke:none"
         id="path52" />
    </g>
  </g>
</svg>
