<?xml version="1.0" encoding="UTF-8" standalone="no"?>
<svg
   xmlns:dc="http://purl.org/dc/elements/1.1/"
   xmlns:cc="http://creativecommons.org/ns#"
   xmlns:rdf="http://www.w3.org/1999/02/22-rdf-syntax-ns#"
   xmlns:svg="http://www.w3.org/2000/svg"
   xmlns="http://www.w3.org/2000/svg"
   width="92.721001"
   height="69.828003"
   viewBox="0 0 92.721002 69.828004"
   id="svg2"
   version="1.1">
  <defs
     id="defs4" />
  <metadata
     id="metadata7">
    <rdf:RDF>
      <cc:Work
         rdf:about="">
        <dc:format>image/svg+xml</dc:format>
        <dc:type
           rdf:resource="http://purl.org/dc/dcmitype/StillImage" />
        <dc:title></dc:title>
      </cc:Work>
    </rdf:RDF>
  </metadata>
  <g
     id="layer1"
     transform="translate(0,-982.53418)">
    <path
       id="path26"
       style="fill:#2e64b3;fill-opacity:1;fill-rule:nonzero;stroke:none"
       d="m 79.884751,982.53414 -67.419406,0 c -1.43116,0 -2.8442404,1.0395 -3.1630904,2.44038 l -9.24120997,41.49898 c -0.31055,1.399 0.59424,2.6124 2.03173997,2.6124 l 66.5952164,0 c 1.42925,0 2.84813,-1.2613 3.15675,-2.6578 l 9.24563,-41.48671 c 0.3105,-1.40237 0.21962,-2.40725 -1.20563,-2.40725" />
    <path
       id="path28"
       style="fill:#56c5f2;fill-opacity:1;fill-rule:nonzero;stroke:none"
       d="m 90.841251,993.48189 -48.75437,0 c -1.43163,0 -2.84863,1.17088 -3.1635,2.57075 l -8.20125,36.99416 c -0.3125,1.4052 0.59425,2.8823 2.02537,2.8823 l 48.53575,0 c 1.42913,0 2.84425,-1.4648 3.16063,-2.8662 l 8.20112,-36.70313 c 0.3155,-1.39213 -0.36425,-2.87788 -1.80375,-2.87788" />
    <path
       id="path30"
       style="fill:#88d6f6;fill-opacity:1;fill-rule:nonzero;stroke:none"
       d="m 42.086881,993.48189 c -1.43163,0 -2.84863,1.29488 -3.1635,2.69088 l -7.33113,32.91313 37.09575,0 c 1.42925,0 2.84813,-1.2964 3.15675,-2.688 l 7.30613,-32.91601 -37.064,0" />
    <path
       id="path32"
       style="fill:#41b73c;fill-opacity:1;fill-rule:nonzero;stroke:none"
       d="m 47.711001,1006.4936 -22.11137,0 c -1.4355,0 -2.853,1.0009 -3.17238,2.4009 l -9.220746,40.6406 c -0.32275,1.3965 0.58263,2.8271 2.018126,2.8271 l 22.08737,0 c 1.42975,0 2.85213,-1.4956 3.169,-2.8955 l 9.22113,-40.4023 c 0.31887,-1.3921 -0.52688,-2.5625 -1.95988,-2.5625" />
    <path
       id="path34"
       style="fill:#7fcd48;fill-opacity:1;fill-rule:nonzero;stroke:none"
       d="m 47.711001,1006.4936 -22.11137,0 c -1.4355,0 -2.853,1.1289 -3.17238,2.5214 l -4.59225,20.0709 27.28225,0 4.58488,-20.0796" />
    <path
       id="path36"
       style="fill:#acd91a;fill-opacity:1;fill-rule:nonzero;stroke:none"
       d="m 47.711001,1006.4936 -11.05375,0 -5.93512,26.7045 c -0.3125,1.4029 0.59425,2.731 2.02537,2.731 l 10.897,0 6.05763,-26.7153 c 0.31887,-1.392 -0.52688,-2.666 -1.95988,-2.666" />
    <path
       id="path38"
       style="fill:#ffffff;fill-opacity:1;fill-rule:nonzero;stroke:none"
       d="m 47.788131,1006.4936 -11.13088,0 -4.98787,22.5923 13.525,0 4.58437,-20.0215 c 0.31888,-1.3985 -0.5575,-2.5708 -1.99062,-2.5708" />
  </g>
</svg>
