<?xml version="1.0" encoding="UTF-8" standalone="no"?>
<svg
   xmlns:dc="http://purl.org/dc/elements/1.1/"
   xmlns:cc="http://creativecommons.org/ns#"
   xmlns:rdf="http://www.w3.org/1999/02/22-rdf-syntax-ns#"
   xmlns:svg="http://www.w3.org/2000/svg"
   xmlns="http://www.w3.org/2000/svg"
   version="1.1"
   id="svg2"
   viewBox="0 0 86.017999 84.438005"
   height="84.438004"
   width="86.017998">
  <defs
     id="defs4" />
  <metadata
     id="metadata7">
    <rdf:RDF>
      <cc:Work
         rdf:about="">
        <dc:format>image/svg+xml</dc:format>
        <dc:type
           rdf:resource="http://purl.org/dc/dcmitype/StillImage" />
        <dc:title></dc:title>
      </cc:Work>
    </rdf:RDF>
  </metadata>
  <g
     transform="translate(0,-967.92418)"
     id="layer1">
    <g
       id="g4740">
      <path
         id="path26"
         style="fill:#5d87a1;fill-opacity:1;fill-rule:evenodd;stroke:none"
         d="m 79.231723,1033.2325 c -4.6825,-0.1171 -8.30875,0.3502 -11.35,1.6383 -0.8775,0.3506 -2.28,0.3506 -2.4,1.4624 0.47125,0.4672 0.5275,1.227 0.94,1.8735 0.7,1.17 1.92625,2.7471 3.04,3.5683 1.22875,0.9365 2.4575,1.8692 3.74625,2.688 2.28,1.4102 4.855,2.2257 7.075,3.6304 1.29125,0.8179 2.57375,1.8701 3.865,2.75 0.64125,0.4678 1.0475,1.2295 1.87,1.519 l 0,-0.1772 c -0.4125,-0.5249 -0.5275,-1.2857 -0.935,-1.874 -0.58375,-0.5805 -1.17,-1.1104 -1.75625,-1.6929 -1.6975,-2.2813 -3.80625,-4.2685 -6.0825,-5.9068 -1.87375,-1.2905 -5.97125,-3.0458 -6.72875,-5.204 0,0 -0.06125,-0.062 -0.11875,-0.1196 1.2875,-0.1187 2.81125,-0.5875 4.03875,-0.9424 1.98625,-0.525 3.8,-0.4062 5.8475,-0.9312 0.9375,-0.2358 1.87375,-0.5303 2.81375,-0.8179 l 0,-0.5302 c -1.05875,-1.0508 -1.81625,-2.457 -2.9275,-3.4507 -2.98125,-2.5732 -6.26125,-5.087 -9.65375,-7.1963 -1.81625,-1.1704 -4.15625,-1.9273 -6.0875,-2.9243 -0.69875,-0.3516 -1.8675,-0.5249 -2.27875,-1.1132 -1.05375,-1.2867 -1.64125,-2.981 -2.4,-4.5045 -1.695,-3.2142 -3.33625,-6.7817 -4.79625,-10.1804 -1.0525,-2.28 -1.69625,-4.56 -2.98375,-6.66752 -6.02875,-9.9475 -12.57875,-15.97 -22.64125,-21.88 -2.165,-1.23 -4.73875,-1.75625 -7.48625,-2.4 -1.465,-0.0613 -2.92625,-0.175 -4.38875,-0.2325 -0.9375,-0.41125 -1.875,-1.52375 -2.6925,-2.05 -3.33625,-2.105 -11.9325007,-6.6675 -14.39125069,-0.6425 -1.57999991,3.805 2.33999999,7.5475 3.68624999,9.47875 0.99375,1.34375 2.2825,2.8675 2.98125,4.38625 0.41,0.995 0.5275,2.05 0.93875,3.10125 0.935,2.57375 1.81125,5.44125 3.0425007,7.84125 0.64125,1.22875 1.3425,2.5175 2.16125,3.62375 0.4725,0.64747 1.28875,0.93627 1.465,1.99247 -0.81625,1.1688 -0.88,2.9238 -1.3475,4.3875 -2.105,6.6113 -1.2875,14.8018 1.6975,19.6568 0.93375,1.4624 3.16,4.6811 6.14375,3.4496 2.6325,-1.0512 2.0475,-4.3861 2.8075,-7.3095 0.175,-0.707 0.0575,-1.1709 0.4075,-1.6382 l 0,0.1182 c 0.81875,1.6358 1.64,3.2114 2.4,4.855 1.81625,2.8638 4.9725,5.8481 7.6075,7.8354 1.4,1.0571 2.5125,2.8677 4.2675,3.5132 l 0,-0.1767 -0.115,0 c -0.3525,-0.525 -0.8775,-0.7608 -1.34625,-1.1685 -1.0525,-1.0538 -2.22,-2.3414 -3.0425,-3.5108 -2.45625,-3.2748 -4.62375,-6.9042 -6.55,-10.648 -0.93875,-1.8178 -1.75625,-3.8051 -2.5175,-5.6176 -0.35,-0.6987 -0.35,-1.7549 -0.93625,-2.105 -0.88,1.2856 -2.16375,2.3989 -2.80625,3.9736 -1.1125,2.5187 -1.22875,5.6187 -1.64125,8.8379 -0.2325,0.061 -0.115,0 -0.2325,0.1163 -1.87,-0.4678 -2.51375,-2.398 -3.2175,-4.0308 -1.755,-4.1592 -2.05,-10.8284 -0.52625,-15.6259 0.4075,-1.2262 2.1675,-5.0875 1.4625,-6.2575 -0.35375,-1.11622 -1.5225,-1.75372 -2.165,-2.63497 -0.75875,-1.11125 -1.5825,-2.5125 -2.10375,-3.74375 -1.405,-3.275 -2.11125,-6.90375 -3.6275007,-10.17875 -0.7025,-1.52375 -1.93375,-3.10375 -2.925,-4.505 -1.11375,-1.58 -2.34125,-2.69125 -3.22,-4.56125 -0.29,-0.645 -0.6999999,-1.69875 -0.23375,-2.39875 0.115,-0.46875 0.3525,-0.645 0.82125,-0.7625 0.75625,-0.64375 2.92375,0.17375 3.6825,0.525 2.16625,0.875 3.9800007,1.69875 5.7912507,2.925 0.82,0.58625 1.6975,1.6975 2.74875,1.9925 l 1.23125,0 c 1.87125,0.40625 3.97875,0.11375 5.735,0.6425 3.09875,0.99375 5.90625,2.45625 8.42375,4.03625 7.66125,4.85625 13.98,11.76125 18.24875,20.00872 0.70375,1.3438 0.99875,2.5738 1.64125,3.975 1.22875,2.8725 2.75125,5.7975 3.9775,8.6029 1.2275,2.75 2.4,5.5558 4.1575,7.8409 0.875,1.2265 4.38625,1.8701 5.96625,2.5141 1.1675,0.5249 2.98375,0.9936 4.0375,1.6363 1.98875,1.2265 3.97375,2.6327 5.84875,3.9805 0.93375,0.7021 3.86,2.163 4.03625,3.3348" />
      <path
         id="path28"
         style="fill:#5d87a1;fill-opacity:1;fill-rule:evenodd;stroke:none"
         d="m 19.557973,982.39053 c -0.9925,0 -1.6925,0.12 -2.39875,0.29375 l 0,0.1175 0.11375,0 c 0.4725,0.93375 1.2925,1.5825 1.8725,2.4 0.47125,0.93625 0.88125,1.86875 1.34875,2.80625 0.0575,-0.0575 0.11375,-0.11875 0.11375,-0.11875 0.825,-0.5825 1.23375,-1.5175 1.23375,-2.92375 -0.35375,-0.4125 -0.40875,-0.81875 -0.70375,-1.23 -0.35,-0.58375 -1.11125,-0.87625 -1.58,-1.345" />
    </g>
  </g>
</svg>
