<?xml version="1.0" encoding="UTF-8" standalone="no"?>
<svg
   xmlns:dc="http://purl.org/dc/elements/1.1/"
   xmlns:cc="http://creativecommons.org/ns#"
   xmlns:rdf="http://www.w3.org/1999/02/22-rdf-syntax-ns#"
   xmlns:svg="http://www.w3.org/2000/svg"
   xmlns="http://www.w3.org/2000/svg"
   version="1.1"
   id="svg2"
   viewBox="0 0 257 257"
   height="257"
   width="257">
  <defs
     id="defs4" />
  <metadata
     id="metadata7">
    <rdf:RDF>
      <cc:Work
         rdf:about="">
        <dc:format>image/svg+xml</dc:format>
        <dc:type
           rdf:resource="http://purl.org/dc/dcmitype/StillImage" />
        <dc:title></dc:title>
      </cc:Work>
    </rdf:RDF>
  </metadata>
  <g
     transform="translate(0,-795.36218)"
     id="layer1">
    <g
       id="g4882">
      <g
         id="g82"
         transform="matrix(1.25,0,0,-1.25,139.84837,876.11962)">
        <path
           d="M 0,0 C 9.002,-24.923 36.515,-37.829 61.432,-28.824 86.363,-19.82 99.263,7.687 90.264,32.612 81.253,57.533 53.755,70.442 28.823,61.439 3.903,52.435 -9.005,24.927 0,0"
           style="fill:#2d79bd;fill-opacity:1;fill-rule:nonzero;stroke:none"
           id="path84" />
      </g>
      <g
         id="g86"
         transform="matrix(1.25,0,0,-1.25,63.505872,987.34696)">
        <path
           d="M 0,0 C -9.417,-16.662 -3.545,-37.801 13.114,-47.218 29.776,-56.64 50.925,-50.764 60.339,-34.104 69.753,-17.44 63.884,3.701 47.219,13.12 30.56,22.537 9.411,16.663 0,0"
           style="fill:#2d79bd;fill-opacity:1;fill-rule:nonzero;stroke:none"
           id="path88" />
      </g>
      <g
         id="g90"
         transform="matrix(1.25,0,0,-1.25,1.2388721,903.26612)">
        <path
           d="M 0,0 C -2.189,-10.859 4.839,-21.442 15.698,-23.635 26.557,-25.827 37.144,-18.801 39.33,-7.943 41.528,2.92 34.5,13.505 23.638,15.697 12.776,17.891 2.195,10.861 0,0"
           style="fill:#2d79bd;fill-opacity:1;fill-rule:nonzero;stroke:none"
           id="path92" />
      </g>
    </g>
  </g>
</svg>
