<svg xmlns="http://www.w3.org/2000/svg" xmlns:xlink="http://www.w3.org/1999/xlink" version="1.1" x="0px" y="0px" viewBox="0 0 100 100" enable-background="new 0 0 100 100" xml:space="preserve"><path fill="#000000" d="M50.035,52.492h-0.103c-3.892,0-6.03,2.192-6.03,6.167v0.146c0,4.033,2.085,6.162,6.03,6.162h0.103  c3.946,0,6.03-2.129,6.03-6.162v-0.146C56.064,54.685,53.922,52.492,50.035,52.492z M52.803,58.806c0,2.227-0.645,2.9-2.768,2.9  h-0.103c-2.124,0-2.773-0.674-2.773-2.9v-0.146c0-2.197,0.674-2.91,2.773-2.91h0.103c2.1,0,2.768,0.713,2.768,2.91V58.806z   M29.864,42.097v-0.151c0-3.198,1.484-4.531,4.399-4.531h0.107c2.915,0,4.399,1.333,4.399,4.531v0.151  c0,3.213-1.484,4.531-4.399,4.531h-0.107C31.349,46.628,29.864,45.31,29.864,42.097z M60.898,42.097v-0.151  c0-3.198,1.484-4.531,4.404-4.531H65.4c2.92,0,4.404,1.333,4.404,4.531v0.151c0,3.213-1.484,4.531-4.404,4.531h-0.098  C62.383,46.628,60.898,45.31,60.898,42.097z M92.822,50.51c-7.021-8.325-19.883-22.642-20.01-22.783l-0.059,0.049  c-4.375-6.294-11.826-9.395-22.47-9.395h-0.605c-10.629,0-18.076,3.096-22.456,9.38l-0.039-0.034  c-0.127,0.142-12.988,14.458-20.01,22.783c-5.562,6.587-7.676,10.981-7.075,14.702c0.562,3.496,3.506,5.732,6.606,7.637  c2.236,1.377,6.865,3.847,9.478,4.97c2.544,1.104,4.805,1.65,6.763,1.65c1.733,0,3.237-0.43,4.487-1.299  c0.762-0.527,1.353-1.172,1.826-1.855c2.085,4.189,6.196,6.26,12.446,6.26h0.293c3.247,0,5.874-0.547,7.983-1.68  c2.115,1.133,4.736,1.68,7.988,1.68h0.293c6.26,0,10.381-2.08,12.461-6.289c0.469,0.703,1.074,1.357,1.846,1.885  c1.25,0.869,2.744,1.299,4.482,1.299c1.963,0,4.219-0.547,6.768-1.65c2.607-1.123,7.236-3.593,9.473-4.97  c3.096-1.904,6.045-4.141,6.611-7.637C100.498,61.491,98.379,57.097,92.822,50.51z M49.678,21.643h0.605  c16.542,0,23.916,7.612,23.916,24.683v0.874c0,5.332-1.68,9.712-3.066,13.267c-0.879-2.178-2.246-3.857-4.121-5.063  c-0.273-0.239-0.625-0.498-1.064-0.776l-0.801-0.508c-4.463-2.842-9.082-5.781-9.082-9.287v-9.253c0-3.97-2.143-6.162-6.03-6.162  h-0.103c-3.892,0-6.03,2.192-6.03,6.162v8.823c-0.01,0.137-0.015,0.278-0.015,0.43c0,3.506-4.619,6.44-9.082,9.282L34,54.626  c-0.459,0.293-0.82,0.562-1.108,0.82c-1.865,1.211-3.223,2.91-4.087,5.107c-1.45-3.672-3.037-7.837-3.037-13.354v-0.874  C25.768,29.255,33.141,21.643,49.678,21.643z M25.572,75.495c-1.655,1.132-4.458,0.907-8.101-0.664  c-2.49-1.074-6.914-3.438-9.058-4.756c-3.335-2.051-4.814-3.613-5.098-5.381c-0.42-2.607,1.597-6.455,6.348-12.085  c3.853-4.565,9.478-10.952,13.774-15.791c-0.62,2.837-0.933,6.001-0.933,9.507v0.874c0,6.279,1.875,11.03,3.379,14.849  c0.942,2.383,1.753,4.443,1.753,6.094c0,0.703,0.029,1.367,0.078,2.021h-0.005C27.716,70.202,27.828,73.952,25.572,75.495z   M58.262,79.322h-0.293c-3.066,0-5.385-0.547-7.084-1.68c-0.273-0.176-0.591-0.273-0.903-0.273s-0.625,0.098-0.898,0.273  c-1.699,1.133-4.019,1.68-7.084,1.68h-0.293c-7.676,0-10.811-3.242-10.811-11.181v-0.43c0-4.814,1.265-7.949,3.867-9.59  c0.093-0.068,0.181-0.137,0.259-0.205c0.083-0.078,0.288-0.254,0.737-0.547l0.796-0.508c5.205-3.311,10.59-6.738,10.59-12.031  c0-0.083,0.005-0.161,0.01-0.239c0.005-0.044,0.005-0.088,0.005-0.132v-8.882c0-2.197,0.674-2.9,2.773-2.9h0.103  c2.1,0,2.768,0.703,2.768,2.9v9.253c0,5.293,5.387,8.721,10.596,12.031l0.791,0.508c0.439,0.283,0.645,0.449,0.723,0.527  s0.166,0.137,0.254,0.195c2.627,1.631,3.906,4.785,3.906,9.619v0.43C69.072,75.973,65.84,79.322,58.262,79.322z M96.68,64.694  c-0.283,1.768-1.758,3.33-5.098,5.381c-2.139,1.318-6.562,3.682-9.053,4.756c-3.643,1.571-6.445,1.796-8.105,0.664  c-2.256-1.543-2.139-5.293-2.139-5.332h-0.039c0.049-0.654,0.078-1.318,0.078-2.021v-0.293c0-1.523,0.811-3.564,1.738-5.928  c1.514-3.857,3.398-8.647,3.398-14.722v-0.874c0-3.525-0.312-6.704-0.938-9.551c4.297,4.844,9.941,11.255,13.809,15.835  C95.088,58.239,97.1,62.087,96.68,64.694z"></path></svg>